<?xml version="1.0" standalone="no"?>
<!DOCTYPE svg PUBLIC "-//W3C//DTD SVG 20010904//EN"
 "http://www.w3.org/TR/2001/REC-SVG-20010904/DTD/svg10.dtd">
<svg version="1.0" xmlns="http://www.w3.org/2000/svg"
 width="600.000000pt" height="171.000000pt" viewBox="0 0 600.000000 171.000000"
 preserveAspectRatio="xMidYMid meet">
<g transform="translate(0.000000,171.000000) scale(0.100000,-0.100000)"
fill="#4c3126" stroke="none">
<path d="M1177 1428 c-84 -22 -238 -213 -329 -408 -39 -82 -50 -97 -82 -112
-20 -10 -53 -18 -72 -18 -24 0 -34 -4 -31 -12 3 -9 22 -13 56 -12 28 1 51 0
51 -1 0 -2 -25 -66 -55 -143 -62 -157 -67 -185 -33 -180 16 2 36 27 71 86 26
45 54 82 61 82 8 0 19 -14 27 -31 30 -74 90 -119 159 -119 47 0 87 18 146 66
23 19 43 34 46 34 3 0 5 -14 6 -31 1 -35 27 -69 52 -69 33 0 105 31 143 61
l37 30 0 -36 c0 -30 3 -35 23 -35 14 0 39 16 62 41 77 80 194 159 235 159 14
0 12 -25 -7 -87 -40 -127 43 -155 176 -59 l51 36 0 -30 c0 -44 31 -70 83 -70
52 0 89 20 166 87 l58 52 6 -57 c14 -135 121 -137 265 -4 47 44 65 72 44 72
-4 0 -33 -23 -64 -50 -54 -48 -111 -80 -142 -80 -45 0 -56 56 -31 149 12 48
26 67 103 145 228 232 380 458 345 514 -28 46 -119 15 -196 -66 -78 -84 -202
-285 -247 -402 -12 -30 -25 -58 -29 -63 -4 -4 -22 0 -40 9 -67 33 -143 -1
-274 -122 -153 -142 -218 -174 -225 -111 -2 15 4 47 13 71 9 24 15 56 13 72
-3 26 -7 29 -43 32 -34 2 -53 -6 -130 -54 -49 -31 -93 -62 -97 -68 -4 -6 -10
-7 -14 -4 -3 4 6 37 21 73 21 48 25 69 17 77 -19 19 -42 0 -67 -53 -37 -81
-176 -195 -228 -187 -36 5 -31 39 18 142 25 53 43 101 40 106 -15 25 -43 6
-80 -52 -22 -34 -62 -84 -90 -111 -90 -89 -160 -108 -222 -61 -40 31 -70 82
-51 88 114 36 201 100 196 144 -7 58 -72 54 -167 -10 -34 -22 -60 -43 -57 -45
2 -2 30 9 61 26 89 48 137 40 75 -12 -36 -31 -100 -54 -162 -60 l-47 -4 21 51
c11 28 27 67 35 87 12 28 27 42 71 64 151 74 320 238 365 353 23 57 21 79 -8
107 -26 27 -39 28 -98 13z m77 -50 c18 -30 -47 -140 -137 -232 -74 -74 -195
-166 -219 -166 -12 0 69 153 126 239 58 86 111 140 161 162 44 21 54 20 69 -3z
m1506 -26 c0 -30 -41 -104 -114 -206 -42 -58 -201 -237 -218 -244 -20 -8 -4
36 48 136 82 157 177 286 239 324 40 24 45 23 45 -10z m-470 -520 c28 -22 23
-33 -45 -104 -70 -72 -131 -111 -174 -112 -32 -1 -36 2 -39 26 -7 56 62 145
142 183 61 30 86 31 116 7z"/>
<path d="M4585 1376 c-97 -43 -275 -297 -354 -506 -18 -47 -39 -95 -46 -106
-17 -26 -174 -138 -182 -130 -4 3 -1 23 5 45 50 167 -43 237 -206 156 -114
-58 -187 -170 -148 -230 14 -22 24 -25 72 -25 63 0 99 15 167 72 27 22 51 37
54 34 4 -3 0 -27 -8 -54 -14 -43 -22 -52 -108 -110 -247 -165 -361 -289 -361
-394 0 -38 5 -50 26 -67 35 -28 87 -27 150 3 61 28 108 73 165 157 44 65 126
234 149 307 11 37 25 50 104 105 50 34 93 63 97 65 4 2 7 -18 7 -43 -1 -54 15
-89 49 -104 57 -26 117 -8 218 64 l63 44 6 -39 c21 -132 220 -92 282 57 12 28
19 32 69 38 31 4 58 6 60 3 2 -2 -2 -22 -10 -43 -28 -80 -12 -135 39 -135 29
0 100 50 147 103 l36 41 6 -30 c10 -50 49 -84 97 -84 23 0 54 7 70 15 34 18
89 84 119 142 25 51 29 134 6 153 -22 18 -26 9 -29 -53 -6 -131 -142 -277
-197 -210 -9 10 -14 42 -14 87 0 91 -18 99 -66 29 -79 -114 -192 -189 -175
-116 4 16 25 66 46 111 22 46 40 92 40 103 0 34 -38 22 -64 -19 -20 -32 -34
-41 -82 -55 -31 -9 -61 -14 -65 -11 -5 3 -9 22 -9 43 0 25 -7 44 -19 55 -49
45 -188 -1 -243 -79 -31 -44 -147 -145 -196 -171 -33 -17 -94 -18 -110 -2 -17
17 -15 86 5 144 11 34 30 61 62 89 107 92 232 235 312 357 64 97 84 147 75
184 -5 20 -12 24 -44 24 -20 -1 -50 -7 -67 -14z m65 -51 c0 -32 -43 -109 -124
-220 -72 -98 -211 -243 -223 -232 -12 12 113 250 175 334 92 124 172 179 172
118z m-682 -541 c3 -27 -5 -38 -55 -83 -66 -59 -126 -91 -171 -91 -67 0 -46
84 38 150 61 48 91 61 140 58 42 -3 45 -5 48 -34z m806 20 c13 -34 7 -56 -15
-52 -27 4 -44 30 -36 52 8 21 43 21 51 0z m-74 -27 c8 -17 25 -36 38 -42 35
-15 26 -42 -32 -101 -45 -44 -61 -54 -88 -54 -19 0 -39 5 -46 12 -31 31 5 136
64 188 19 16 38 30 42 30 4 0 14 -15 22 -33z m-848 -375 c-48 -109 -94 -179
-163 -250 -56 -57 -83 -72 -129 -72 -30 0 -50 23 -50 57 0 41 50 121 118 188
78 77 255 200 260 180 2 -6 -15 -53 -36 -103z"/>
<path d="M1371 999 c-27 -29 -28 -59 -2 -59 21 0 64 47 58 64 -7 20 -35 17
-56 -5z"/>
<path d="M2876 736 c-67 -143 -71 -153 -56 -171 17 -20 39 -7 124 73 116 109
240 175 228 122 -2 -8 -11 -43 -19 -77 -14 -57 -14 -64 1 -88 35 -54 138 -25
234 65 68 63 59 86 -11 26 -50 -42 -125 -86 -146 -86 -6 0 -15 9 -21 19 -7 15
-5 36 11 84 51 151 -29 167 -203 42 -42 -30 -81 -55 -87 -55 -5 0 1 24 14 53
34 73 36 101 8 105 -20 3 -29 -11 -77 -112z"/>
</g>
</svg>
